HIERARCHY
ROOT Hips
{
 OFFSET 0.000000 0.000000 0.000000
 CHANNELS 6 Xposition Yposition Zposition Yrotation Xrotation Zrotation
 JOINT Chest
 {
  OFFSET 0.000000 11.395451 -0.039534
  CHANNELS 3 Yrotation Xrotation Zrotation
  JOINT Chest2
  {
   OFFSET 0.000000 9.398669 0.071813
   CHANNELS 3 Yrotation Xrotation Zrotation
   JOINT Chest3
   {
    OFFSET 0.000000 8.489801 0.000000
    CHANNELS 3 Yrotation Xrotation Zrotation
    JOINT Chest4
    {
     OFFSET 0.000000 8.489801 0.000000
     CHANNELS 3 Yrotation Xrotation Zrotation
     JOINT Neck
     {
      OFFSET 0.000000 12.404889 0.000000
      CHANNELS 3 Yrotation Xrotation Zrotation
      JOINT Head
      {
       OFFSET 0.000000 8.903270 0.092239
       CHANNELS 3 Yrotation Xrotation Zrotation
       End Site
       {
        OFFSET 0.000000 17.592497 0.007158
       }
      }
     }
     JOINT RightCollar
     {
      OFFSET -3.196775 6.966722 0.000000
      CHANNELS 3 Yrotation Xrotation Zrotation
      JOINT RightShoulder
      {
       OFFSET -15.955896 0.000000 0.000000
       CHANNELS 3 Yrotation Xrotation Zrotation
       JOINT RightElbow
       {
        OFFSET -24.792472 0.000000 0.000000
        CHANNELS 3 Yrotation Xrotation Zrotation
        JOINT RightWrist
        {
         OFFSET -20.900115 0.000000 0.025002
         CHANNELS 3 Yrotation Xrotation Zrotation
         End Site
         {
          OFFSET -16.056692 0.000000 0.000000
         }
        }
       }
      }
     }
     JOINT LeftCollar
     {
      OFFSET 3.196775 6.966722 0.000000
      CHANNELS 3 Yrotation Xrotation Zrotation
      JOINT LeftShoulder
      {
       OFFSET 15.955896 0.000000 0.000000
       CHANNELS 3 Yrotation Xrotation Zrotation
       JOINT LeftElbow
       {
        OFFSET 24.792472 0.000000 0.000000
        CHANNELS 3 Yrotation Xrotation Zrotation
        JOINT LeftWrist
        {
         OFFSET 20.900115 0.000000 0.025002
         CHANNELS 3 Yrotation Xrotation Zrotation
         End Site
         {
          OFFSET 16.056692 0.000000 0.000000
         }
        }
       }
      }
     }
    }
   }
  }
 }
 JOINT RightHip
 {
  OFFSET -9.568995 0.193718 0.019767
  CHANNELS 3 Yrotation Xrotation Zrotation
  JOINT RightKnee
  {
   OFFSET 0.000000 -56.649296 0.015402
   CHANNELS 3 Yrotation Xrotation Zrotation
   JOINT RightAnkle
   {
    OFFSET 0.000000 -41.365147 0.021264
    CHANNELS 3 Yrotation Xrotation Zrotation
    JOINT RightToe
    {
     OFFSET 0.000000 -7.465940 17.672538
     CHANNELS 3 Yrotation Xrotation Zrotation
     End Site
     {
      OFFSET 0.000000 -1.736315 7.837145
     }
    }
   }
  }
 }
 JOINT LeftHip
 {
  OFFSET 9.568995 0.193718 0.019767
  CHANNELS 3 Yrotation Xrotation Zrotation
  JOINT LeftKnee
  {
   OFFSET 0.000000 -56.649296 0.015402
   CHANNELS 3 Yrotation Xrotation Zrotation
   JOINT LeftAnkle
   {
    OFFSET 0.000000 -41.365147 0.021264
    CHANNELS 3 Yrotation Xrotation Zrotation
    JOINT LeftToe
    {
     OFFSET 0.000000 -7.465940 17.672538
     CHANNELS 3 Yrotation Xrotation Zrotation
     End Site
     {
      OFFSET 0.000000 -1.736315 7.837145
     }
    }
   }
  }
 }
}
MOTION
Frames: 8
Frame Time: 0.016667
-56.502676 103.347546 222.363449 -44.211104 2.471419 -1.304920 -3.716749 6.530854 2.864693 -1.689321 2.879612 1.323418 -1.689215 2.879610 1.323399 -1.272822 2.156082 1.000297 1.990459 12.250912 -1.051462 4.245547 -13.364767 -2.850430 2.828217 4.904252 5.635045 9.784858 -19.644377 45.009176 49.218348 -38.070456 22.180150 -8.415609 -18.618516 10.038821 5.575875 9.195862 -5.867072 -1.548069 -24.390053 -57.577774 -32.711385 -49.890101 -44.149832 20.629700 -11.320248 -6.922718 -8.269385 -21.401594 5.113521 10.426518 23.230291 -2.574792 -2.787906 -5.988048 1.790253 -0.000000 0.000000 -0.000000 5.188486 -15.337968 0.900479 8.382235 68.596427 4.149056 -4.260106 5.221479 -6.933323 1.375230 -17.655916 6.875028
-57.700644 103.467368 222.971081 -42.541124 2.696762 -1.234572 -3.597428 6.478493 2.768395 -1.634922 2.857827 1.278654 -1.634922 2.857827 1.278654 -1.231927 2.139980 0.966451 1.663665 12.249875 -0.659793 3.455897 -13.396043 -1.965012 2.802578 4.846956 5.756178 9.727546 -19.717415 45.105835 48.764794 -38.030987 22.320115 -8.215458 -18.669485 10.128444 5.573907 8.770731 -5.857776 -2.520151 -24.092981 -56.653587 -32.510278 -49.924675 -44.030880 20.786769 -11.438980 -7.307257 -11.293271 -20.753808 6.216208 12.142594 23.969974 -3.221939 -3.586098 -7.089310 1.754430 -0.000000 0.000000 -0.000000 7.669594 -17.895653 0.612176 9.456999 70.847559 6.618082 -1.557593 2.591695 -5.038842 1.102436 -10.485091 2.975719
-58.763147 103.598584 223.565821 -41.257803 2.833309 -1.191227 -3.398896 6.533150 2.695956 -1.546183 2.883905 1.244140 -1.546242 2.883957 1.244167 -1.165358 2.159887 0.940258 1.392868 12.266057 -0.460204 2.853863 -13.380759 -1.469042 3.028547 5.289714 5.595787 9.814873 -20.402756 45.297400 48.314306 -37.967889 22.344566 -7.976671 -18.743368 10.187254 5.601051 8.576063 -5.881321 -2.710325 -24.352017 -56.201452 -32.115196 -49.740412 -44.217924 20.984814 -11.441594 -7.559887 -10.967201 -20.514868 5.985358 10.807678 24.803580 -3.419661 -4.037104 -8.110906 1.543426 -0.000000 0.000000 -0.000000 10.288339 -20.296419 -0.058530 12.130855 71.509251 10.950886 -1.716603 1.534334 -3.698331 0.822758 -8.442806 1.663325
-59.749534 103.741433 224.156734 -40.192403 2.934448 -1.162889 -3.155327 6.626020 2.625621 -1.437579 2.927082 1.210082 -1.437635 2.927136 1.210111 -1.083837 2.192571 0.914304 1.149785 12.313560 -0.363493 2.347896 -13.300969 -1.180259 3.379133 5.930078 5.319411 9.997588 -21.317875 45.513512 47.837350 -37.906707 22.324444 -7.712788 -18.834991 10.223286 5.656504 8.464137 -5.928829 -2.479215 -24.875674 -55.988249 -31.577839 -49.431966 -44.592136 21.207611 -11.377838 -7.723232 -8.891502 -20.401158 5.080034 7.912722 25.517780 -3.415812 -4.319514 -9.062574 1.317442 0.000000 0.000000 0.000000 12.943285 -22.547268 -1.000999 14.236714 71.077590 14.819447 -3.226451 1.055686 -2.522076 0.592716 -8.957612 1.384160
-60.765075 103.897800 224.820995 -39.127479 3.026635 -1.157182 -2.945218 6.666957 2.569921 -1.343676 2.946752 1.182566 -1.343676 2.946752 1.182566 -1.013246 2.207487 0.893218 0.898849 12.412136 -0.314254 1.846525 -13.123952 -0.978151 3.654233 6.353009 5.158321 10.442288 -21.799342 45.569845 47.436381 -37.940126 22.128614 -7.502939 -18.936602 10.275131 5.713630 8.383833 -5.969125 -2.172985 -25.240921 -55.892466 -31.088692 -49.212306 -44.903996 21.419408 -11.291146 -7.818466 -7.281352 -19.942926 4.383633 5.670615 25.753055 -3.379889 -4.776309 -9.860368 1.032145 0.000000 0.000000 0.000000 14.880045 -24.589346 -1.810983 13.403267 70.665765 15.217124 -3.949247 0.239596 -1.739964 0.365064 -8.707019 1.172077
-61.883083 104.072832 225.617191 -37.945661 3.087224 -1.189733 -2.814409 6.604196 2.539122 -1.284833 2.919712 1.166646 -1.284794 2.919667 1.166626 -0.968943 2.187287 0.880912 0.621603 12.610235 -0.315527 1.315602 -12.760429 -0.860793 3.767641 6.319965 5.220873 11.326934 -21.362467 45.379580 47.211833 -38.170993 21.593967 -7.393581 -19.057288 10.366343 5.772975 8.334203 -5.984317 -1.840326 -25.250842 -55.913614 -30.692966 -49.161040 -45.093313 21.630462 -11.170785 -7.833314 -6.904265 -18.878407 4.256379 4.909071 25.208332 -3.413254 -5.654859 -10.433554 0.635553 0.000000 -0.000000 0.000000 15.600581 -26.446005 -2.193934 7.707486 71.142074 9.853573 -2.740053 -1.597622 -1.401872 0.155394 -5.993312 0.705734
-63.030246 104.261383 226.486735 -36.764460 3.140568 -1.245710 -2.717628 6.488272 2.518522 -1.241054 2.868854 1.155522 -1.241025 2.868818 1.155508 -0.935987 2.149262 0.872274 0.337544 12.862239 -0.363312 0.791966 -12.295242 -0.830303 3.798759 6.060578 5.374721 12.458861 -20.480432 45.112263 47.065506 -38.491875 20.879806 -7.337583 -19.191784 10.477686 5.835625 8.314978 -5.989104 -1.432291 -25.093529 -56.027375 -30.329375 -49.203113 -45.235517 21.824922 -11.025670 -7.779302 -6.991275 -17.516094 4.358573 4.793757 24.195523 -3.453710 -6.708605 -10.851925 0.179157 0.000000 -0.000000 0.000000 15.515016 -28.154483 -2.303295 -0.760724 71.384546 1.068782 -0.741035 -3.848332 -1.325657 0.028684 -2.513085 0.293403
-64.091903 104.449897 227.331037 -35.718577 3.282249 -1.283004 -2.596559 6.383148 2.482480 -1.186371 2.823039 1.137322 -1.186371 2.823039 1.137322 -0.894859 2.115091 0.858307 0.066954 13.043682 -0.393565 0.288833 -11.960429 -0.774606 3.802940 5.858382 5.483722 13.466340 -19.927748 44.935322 46.796391 -38.682109 20.344107 -7.274902 -19.311866 10.583491 5.874108 8.276380 -6.005140 -1.150694 -24.925664 -56.059559 -30.012146 -49.328229 -45.305881 21.933886 -10.932539 -7.717249 -7.457950 -16.327025 4.523691 5.030332 23.275614 -3.425983 -7.543896 -11.242878 -0.218674 0.000000 0.000000 0.000000 15.219439 -29.701372 -2.397226 -5.795062 70.107750 -4.596911 0.770231 -5.542175 -1.333495 0.000000 -0.000000 0.000000
